<svg width="70" height="70" viewBox="0 0 54 70" fill="none" xmlns="http://www.w3.org/2000/svg">
<g id="Group">
<path id="Vector" d="M51.7917 11.6667C44.1792 13.7083 35.2542 14.5833 27 14.5833C18.7458 14.5833 9.82083 13.7083 2.20833 11.6667L0.75 17.5C6.175 18.9583 12.4167 19.9208 18.25 20.4167V55.4167H24.0833V37.9167H29.9167V55.4167H35.75V20.4167C41.5833 19.9208 47.825 18.9583 53.25 17.5L51.7917 11.6667ZM27 11.6667C30.2083 11.6667 32.8333 9.04167 32.8333 5.83333C32.8333 2.625 30.2083 0 27 0C23.7917 0 21.1667 2.625 21.1667 5.83333C21.1667 9.04167 23.7917 11.6667 27 11.6667ZM12.4167 70H18.25V64.1667H12.4167V70ZM24.0833 70H29.9167V64.1667H24.0833V70ZM35.75 70H41.5833V64.1667H35.75V70Z" fill="url(#paint0_linear_29367_69)"/>
</g>
<defs>
<linearGradient id="paint0_linear_29367_69" x1="27" y1="0" x2="27" y2="70" gradientUnits="userSpaceOnUse">
<stop stop-color="#FA5252"/>
<stop offset="1" stop-color="#D32476"/>
</linearGradient>
</defs>
</svg>
