<svg xmlns="http://www.w3.org/2000/svg" height="24" viewBox="0 -960 960 960" width="24"><path d="M361.287-391.231q-20.941 0-35.191-14.193-14.25-14.194-14.25-35.135 0-20.941 14.194-35.191Q340.233-490 361.174-490q20.941 0 35.191 14.194 14.25 14.193 14.25 35.134 0 20.941-14.193 35.191-14.194 14.25-35.135 14.25Zm237.539 0q-20.941 0-35.191-14.193-14.25-14.194-14.25-35.135 0-20.941 14.193-35.191Q577.772-490 598.713-490q20.941 0 35.191 14.194 14.25 14.193 14.25 35.134 0 20.941-14.194 35.191-14.194 14.25-35.134 14.25ZM479.975-163.077q132.294 0 224.621-92.28t92.327-224.733q0-23.723-3-45.963-3-22.24-11-43.332-21 5-41.385 7.5-20.384 2.5-43.48 2.5-90.122 0-170.34-38.634-80.218-38.635-136.964-108.135-31.639 77.269-90.466 134.462-58.826 57.192-137.211 85.809V-479.962q0 132.231 92.301 224.558 92.302 92.327 224.597 92.327Zm.208 36.923q-73.397 0-138.067-27.886t-112.508-75.69q-47.838-47.805-75.646-112.288t-27.808-137.799q0-73.397 27.886-138.067t75.69-112.508q47.805-47.838 112.288-75.646t137.799-27.808q73.397 0 138.067 27.886t112.508 75.69q47.838 47.805 75.646 112.288t27.808 137.799q0 73.397-27.886 138.067t-75.69 112.508q-47.805 47.838-112.288 75.646t-137.799 27.808Zm-94.337-657.985q49.654 96.87 138.949 142.043 89.294 45.173 173.432 45.173 18.975 0 36.826-1.885t35.562-6.692q-38.154-89.346-117.818-140.385-79.665-51.038-172.937-51.038-26.168 0-49.244 3.096-23.077 3.096-44.77 9.688ZM167.308-527.462q60.654-26.731 124.903-89.942 64.25-63.211 77.25-160.865Q285.423-746 232.865-679.712q-52.557 66.289-65.557 152.25Zm218.538-256.653Zm-16.385 5.846Z"/></svg>